<svg width="110" height="110" viewBox="0 0 110 110" fill="none" xmlns="http://www.w3.org/2000/svg">
<path fill-rule="evenodd" clip-rule="evenodd" d="M67.9162 14.2432C66.0948 15.6329 63.939 17.7784 60.7454 20.972L20.9723 60.7451C17.7787 63.9387 15.6332 66.0945 14.2435 67.9159C12.9144 69.658 12.6045 70.6844 12.6045 71.5722C12.6045 72.4599 12.9144 73.4864 14.2435 75.2284C15.6332 77.0498 17.7787 79.2056 20.9723 82.3992L27.6011 89.028C30.7947 92.2216 32.9506 94.3671 34.7719 95.7568C36.514 97.0859 37.5404 97.3958 38.4282 97.3958C39.3159 97.3958 40.3424 97.0859 42.0844 95.7568C43.9058 94.3671 46.0616 92.2216 49.2552 89.028L89.0284 49.2549C92.2219 46.0613 94.3674 43.9055 95.7571 42.0841C97.0863 40.3421 97.3961 39.3156 97.3961 38.4279C97.3961 37.5401 97.0863 36.5137 95.7571 34.7716C94.3674 32.9503 92.2219 30.7944 89.0284 27.6008L82.3995 20.972C79.2059 17.7784 77.0501 15.6329 75.2287 14.2432C73.4867 12.9141 72.4602 12.6042 71.5725 12.6042C70.6847 12.6042 69.6583 12.9141 67.9162 14.2432ZM63.746 8.77745C66.0996 6.98172 68.5771 5.72919 71.5725 5.72919C74.5678 5.72919 77.0454 6.98172 79.3989 8.77745C81.6311 10.4805 84.1111 12.9606 87.0917 15.9414L94.0589 22.9086C97.0397 25.8893 99.5198 28.3692 101.223 30.6014C103.019 32.955 104.271 35.4325 104.271 38.4279C104.271 41.4232 103.019 43.9008 101.223 46.2544C99.5198 48.4865 97.0397 50.9665 94.0588 53.9471L53.9475 94.0585C50.9668 97.0394 48.4869 99.5195 46.2547 101.223C43.9011 103.018 41.4235 104.271 38.4282 104.271C35.4328 104.271 32.9553 103.018 30.6017 101.223C28.3695 99.5195 25.8895 97.0394 22.9089 94.0585L15.9417 87.0914C12.9609 84.1107 10.4808 81.6308 8.77776 79.3986C6.98203 77.0451 5.72949 74.5675 5.72949 71.5722C5.72949 68.5768 6.98203 66.0993 8.77776 63.7457C10.4809 61.5135 12.961 59.0335 15.9419 56.0528L56.0532 15.9415C59.0338 12.9607 61.5138 10.4806 63.746 8.77745Z" fill="#365EDC"/>
<path fill-rule="evenodd" clip-rule="evenodd" d="M36.3653 36.3648C37.7077 35.0224 39.8842 35.0224 41.2266 36.3648L47.7084 42.8466C49.0508 44.189 49.0508 46.3655 47.7084 47.708C46.366 49.0504 44.1895 49.0504 42.8471 47.708L36.3652 41.2262C35.0228 39.8837 35.0228 37.7072 36.3653 36.3648Z" fill="#365EDC"/>
<path fill-rule="evenodd" clip-rule="evenodd" d="M55.8106 16.9194C57.153 15.5769 59.3295 15.5769 60.6719 16.9194L67.1537 23.4012C68.4962 24.7436 68.4962 26.9201 67.1537 28.2625C65.8113 29.605 63.6348 29.605 62.2924 28.2625L55.8106 21.7807C54.4681 20.4383 54.4681 18.2618 55.8106 16.9194Z" fill="#365EDC"/>
<path fill-rule="evenodd" clip-rule="evenodd" d="M16.919 55.8102C18.2614 54.4678 20.4379 54.4678 21.7803 55.8102L28.2621 62.292C29.6046 63.6345 29.6046 65.811 28.2621 67.1534C26.9197 68.4958 24.7432 68.4958 23.4008 67.1534L16.919 60.6716C15.5765 59.3292 15.5765 57.1527 16.919 55.8102Z" fill="#365EDC"/>
<path fill-rule="evenodd" clip-rule="evenodd" d="M26.6416 46.0875C27.984 44.7451 30.1605 44.7451 31.503 46.0875L41.2257 55.8102C42.5681 57.1527 42.5681 59.3292 41.2257 60.6716C39.8833 62.014 37.7068 62.014 36.3643 60.6716L26.6416 50.9489C25.2992 49.6064 25.2992 47.4299 26.6416 46.0875Z" fill="#365EDC"/>
<path fill-rule="evenodd" clip-rule="evenodd" d="M46.0879 26.6421C47.4303 25.2996 49.6068 25.2996 50.9493 26.6421L60.672 36.3648C62.0144 37.7072 62.0144 39.8837 60.672 41.2262C59.3296 42.5686 57.1531 42.5686 55.8106 41.2262L46.0879 31.5034C44.7455 30.161 44.7455 27.9845 46.0879 26.6421Z" fill="#365EDC"/>
</svg>
