<svg width="110" height="110" viewBox="0 0 110 110" fill="none" xmlns="http://www.w3.org/2000/svg">
<path fill-rule="evenodd" clip-rule="evenodd" d="M5.72949 100.833C5.72949 98.9349 7.26851 97.3958 9.16699 97.3958L100.834 97.3958C102.732 97.3958 104.271 98.9349 104.271 100.833C104.271 102.732 102.732 104.271 100.834 104.271L9.16699 104.271C7.26851 104.271 5.72949 102.732 5.72949 100.833Z" fill="#365EDC"/>
<path fill-rule="evenodd" clip-rule="evenodd" d="M50.178 5.72916H59.8214C63.9394 5.72903 67.3733 5.72891 70.0994 6.09543C72.9768 6.48228 75.5746 7.33327 77.6622 9.42084C79.7497 11.5084 80.6007 14.1062 80.9876 16.9836C81.3541 19.7097 81.354 23.1437 81.3539 27.2617L81.3539 100.833H74.4789V27.5C74.4789 23.0816 74.4715 20.1136 74.1739 17.8997C73.8895 15.7847 73.3981 14.8795 72.8008 14.2822C72.2035 13.6849 71.2983 13.1935 69.1833 12.9091C66.9694 12.6115 64.0014 12.6042 59.583 12.6042H50.4164C45.998 12.6042 43.03 12.6115 40.8161 12.9091C38.701 13.1935 37.7958 13.6849 37.1986 14.2822C36.6013 14.8795 36.1098 15.7847 35.8255 17.8997C35.5278 20.1136 35.5205 23.0816 35.5205 27.5V100.833H28.6455L28.6455 27.2617C28.6454 23.1436 28.6453 19.7097 29.0118 16.9836C29.3986 14.1062 30.2496 11.5084 32.3372 9.42084C34.4248 7.33327 37.0226 6.48228 39.9 6.09543C42.6261 5.72891 46.06 5.72903 50.178 5.72916Z" fill="#365EDC"/>
<path fill-rule="evenodd" clip-rule="evenodd" d="M87.3909 40.2796C85.7069 40.1083 83.4981 40.1042 80.208 40.1042V33.2292C80.2668 33.2292 80.3254 33.2292 80.3838 33.2292C83.4527 33.2291 86.0135 33.229 88.0867 33.4399C90.2567 33.6607 92.2705 34.1406 94.0855 35.3533C95.4618 36.2729 96.6434 37.4546 97.563 38.8308C98.7757 40.6458 99.2557 42.6596 99.4764 44.8297C99.6873 46.9029 99.6873 49.4637 99.6872 52.5326L99.6872 100.833H92.8122V52.7083C92.8122 49.4182 92.808 47.2094 92.6367 45.5255C92.4713 43.899 92.1788 43.1474 91.8466 42.6504C91.4286 42.0248 90.8915 41.4877 90.266 41.0697C89.7689 40.7376 89.0174 40.4451 87.3909 40.2796Z" fill="#365EDC"/>
<path fill-rule="evenodd" clip-rule="evenodd" d="M29.6159 33.2292L29.7917 33.2292V40.1042C26.5016 40.1042 24.2927 40.1083 22.6088 40.2796C20.9823 40.4451 20.2308 40.7376 19.7337 41.0697C19.1082 41.4877 18.571 42.0248 18.153 42.6504C17.8209 43.1474 17.5284 43.899 17.363 45.5255C17.1917 47.2094 17.1875 49.4182 17.1875 52.7083V100.833H10.3125L10.3125 52.5326C10.3124 49.4637 10.3124 46.9029 10.5233 44.8297C10.744 42.6596 11.224 40.6458 12.4367 38.8308C13.3563 37.4546 14.5379 36.2729 15.9142 35.3533C17.7292 34.1406 19.7429 33.6607 21.913 33.4399C23.9862 33.229 26.547 33.2291 29.6159 33.2292Z" fill="#365EDC"/>
<path fill-rule="evenodd" clip-rule="evenodd" d="M55 83.6458C56.8985 83.6458 58.4375 85.1849 58.4375 87.0833V100.833C58.4375 102.732 56.8985 104.271 55 104.271C53.1015 104.271 51.5625 102.732 51.5625 100.833V87.0833C51.5625 85.1849 53.1015 83.6458 55 83.6458Z" fill="#365EDC"/>
<path fill-rule="evenodd" clip-rule="evenodd" d="M42.3955 22.9167C42.3955 21.0182 43.9345 19.4792 45.833 19.4792H64.1663C66.0648 19.4792 67.6038 21.0182 67.6038 22.9167C67.6038 24.8151 66.0648 26.3542 64.1663 26.3542H45.833C43.9345 26.3542 42.3955 24.8151 42.3955 22.9167Z" fill="#365EDC"/>
<path fill-rule="evenodd" clip-rule="evenodd" d="M42.3955 36.6667C42.3955 34.7682 43.9345 33.2292 45.833 33.2292H64.1663C66.0648 33.2292 67.6038 34.7682 67.6038 36.6667C67.6038 38.5651 66.0648 40.1042 64.1663 40.1042H45.833C43.9345 40.1042 42.3955 38.5651 42.3955 36.6667Z" fill="#365EDC"/>
<path fill-rule="evenodd" clip-rule="evenodd" d="M42.3955 50.4167C42.3955 48.5182 43.9345 46.9792 45.833 46.9792H64.1663C66.0648 46.9792 67.6038 48.5182 67.6038 50.4167C67.6038 52.3151 66.0648 53.8542 64.1663 53.8542H45.833C43.9345 53.8542 42.3955 52.3151 42.3955 50.4167Z" fill="#365EDC"/>
<path fill-rule="evenodd" clip-rule="evenodd" d="M42.3955 64.1667C42.3955 62.2682 43.9345 60.7292 45.833 60.7292H64.1663C66.0648 60.7292 67.6038 62.2682 67.6038 64.1667C67.6038 66.0651 66.0648 67.6042 64.1663 67.6042H45.833C43.9345 67.6042 42.3955 66.0651 42.3955 64.1667Z" fill="#365EDC"/>
</svg>
