<svg width="110" height="110" viewBox="0 0 110 110" fill="none" xmlns="http://www.w3.org/2000/svg">
<path fill-rule="evenodd" clip-rule="evenodd" d="M54.9995 12.6041C49.3041 12.6041 44.687 17.2212 44.687 22.9166V24.1077C47.2402 24.0624 50.0419 24.0624 53.1164 24.0625H56.8826C59.9572 24.0624 62.7588 24.0624 65.312 24.1077V22.9166C65.312 17.2212 60.695 12.6041 54.9995 12.6041ZM72.187 24.4196V22.9166C72.187 13.4242 64.4919 5.72913 54.9995 5.72913C45.5071 5.72913 37.812 13.4242 37.812 22.9166V24.4196C37.1578 24.4759 36.5257 24.5411 35.9148 24.6166C31.2858 25.1885 27.4696 26.39 24.2279 29.0804C20.9861 31.7709 19.1019 35.3003 17.6867 39.7446C16.3152 44.0517 15.277 49.5889 13.972 56.5495L13.8772 57.055C12.0356 66.8763 10.5844 74.6161 10.318 80.718C10.045 86.9724 10.9755 92.1525 14.5036 96.4036C18.0318 100.655 22.9516 102.524 29.1492 103.408C35.1956 104.271 43.0703 104.271 53.0625 104.271H56.9362C66.9286 104.271 74.8034 104.271 80.8498 103.408C87.0474 102.524 91.9673 100.655 95.4954 96.4036C99.0235 92.1524 99.954 86.9724 99.681 80.718C99.4147 74.6162 97.9634 66.8763 96.1218 57.0551L96.0271 56.5497C94.722 49.589 93.6838 44.0517 92.3123 39.7446C90.8971 35.3003 89.0129 31.7709 85.7712 29.0804C82.5294 26.39 78.7132 25.1885 74.0842 24.6166C73.4733 24.5411 72.8412 24.4759 72.187 24.4196ZM36.7579 31.4397C32.8366 31.9242 30.4683 32.8356 28.6185 34.3708C26.7686 35.9061 25.4364 38.0658 24.2376 41.8306C23.0099 45.6861 22.044 50.8045 20.6868 58.0429C18.7814 68.2049 17.4289 75.4632 17.1865 81.0178C16.9482 86.4776 17.8239 89.6391 19.794 92.013C21.7642 94.3868 24.7101 95.8302 30.1203 96.6021C35.6245 97.3875 43.0077 97.3958 53.3468 97.3958H56.6522C66.9914 97.3958 74.3746 97.3875 79.8787 96.6021C85.289 95.8302 88.2349 94.3868 90.205 92.013C92.1751 89.6391 93.0509 86.4776 92.8126 81.0178C92.5701 75.4632 91.2176 68.2049 89.3122 58.0429C87.9551 50.8045 86.9891 45.6861 85.7614 41.8306C84.5626 38.0658 83.2304 35.9061 81.3805 34.3708C79.5307 32.8356 77.1624 31.9242 73.2412 31.4397C69.2255 30.9436 64.0167 30.9375 56.6522 30.9375H53.3468C45.9823 30.9375 40.7735 30.9436 36.7579 31.4397ZM66.4499 54.7224C67.8689 55.9837 67.9967 58.1564 66.7354 59.5754L54.5132 73.3254C53.905 74.0095 53.0492 74.4229 52.1352 74.4738C51.2213 74.5247 50.3248 74.209 49.6444 73.5967L43.5333 68.0967C42.1222 66.8267 42.0078 64.6532 43.2778 63.2421C44.5478 61.8309 46.7213 61.7165 48.1324 62.9865L51.6726 66.1727L61.597 55.0079C62.8582 53.5889 65.031 53.4611 66.4499 54.7224Z" fill="#365EDC"/>
</svg>
