<svg width="32" height="33" viewBox="0 0 32 33" fill="none" xmlns="http://www.w3.org/2000/svg">
<path d="M23 23.5H8.72727L5.2402 4.32112C5.19831 4.0907 5.07688 3.8823 4.89708 3.73225C4.71728 3.58219 4.49052 3.5 4.25633 3.5H2" stroke="#101010" stroke-width="2" stroke-linecap="round" stroke-linejoin="round"/>
<path d="M10 28.5C11.3807 28.5 12.5 27.3807 12.5 26C12.5 24.6193 11.3807 23.5 10 23.5C8.61929 23.5 7.5 24.6193 7.5 26C7.5 27.3807 8.61929 28.5 10 28.5Z" stroke="#101010" stroke-width="2" stroke-linecap="round" stroke-linejoin="round"/>
<path d="M23 28.5C24.3807 28.5 25.5 27.3807 25.5 26C25.5 24.6193 24.3807 23.5 23 23.5C21.6193 23.5 20.5 24.6193 20.5 26C20.5 27.3807 21.6193 28.5 23 28.5Z" stroke="#101010" stroke-width="2" stroke-linecap="round" stroke-linejoin="round"/>
<path d="M7.81818 18.5H23.5127C23.981 18.5 24.4346 18.3356 24.7942 18.0355C25.1538 17.7354 25.3966 17.3186 25.4804 16.8578L27 8.5H6" stroke="#101010" stroke-width="2" stroke-linecap="round" stroke-linejoin="round"/>
</svg>
