<svg width="81" height="95" viewBox="0 0 81 95" fill="none" xmlns="http://www.w3.org/2000/svg">
<path fill-rule="evenodd" clip-rule="evenodd" d="M2.15666 2.14037C3.53755 0.769917 5.41044 0 7.36331 0H51.5468C52.5232 0 53.4596 0.384957 54.1501 1.07019L79.9217 26.6471C80.6121 27.3323 81 28.2617 81 29.2308V87.6923C81 88.6519 80.8096 89.6022 80.4395 90.4888C80.0695 91.3754 79.5271 92.181 78.8434 92.8596C78.1596 93.5382 77.3479 94.0765 76.4545 94.4437C75.5611 94.811 74.6036 95 73.6367 95H7.36331C5.41045 95 3.53756 94.2301 2.15666 92.8596C0.77577 91.4892 0 89.6304 0 87.6923V7.30769C0 5.36957 0.775773 3.51083 2.15666 2.14037ZM50.0218 7.30769L7.36331 7.30769L7.36331 87.6923L73.6367 87.6923V30.7442L50.0218 7.30769Z" fill="#365EDC"/>
<path fill-rule="evenodd" clip-rule="evenodd" d="M51.6663 0C53.6911 0 55.3325 1.59188 55.3325 3.55556V24.8889H77.3337C79.3586 24.8889 81 26.4808 81 28.4444C81 30.4081 79.3586 32 77.3337 32H51.6663C49.6414 32 48 30.4081 48 28.4444V3.55556C48 1.59188 49.6414 0 51.6663 0Z" fill="#365EDC"/>
<path fill-rule="evenodd" clip-rule="evenodd" d="M22 51C22 48.7909 23.6565 47 25.7 47H55.3C57.3435 47 59 48.7909 59 51C59 53.2091 57.3435 55 55.3 55H25.7C23.6565 55 22 53.2091 22 51Z" fill="#365EDC"/>
<path fill-rule="evenodd" clip-rule="evenodd" d="M22 66C22 63.7909 23.6565 62 25.7 62H55.3C57.3435 62 59 63.7909 59 66C59 68.2091 57.3435 70 55.3 70H25.7C23.6565 70 22 68.2091 22 66Z" fill="#365EDC"/>
</svg>
