<svg width="100%" height="100%" class="hidden">
    <symbol viewBox="0 0 17 17" xmlns="http://www.w3.org/2000/svg" id="sites-select">
       <path fill-rule="evenodd" clip-rule="evenodd" d="M8.49904 17C3.80506 16.9995 0 13.1942 0 8.50002C0 3.80559 3.80559 0 8.50002 0C13.1944 0 17 3.80559 17 8.50002C17 13.1931 13.1966 16.9978 8.50413 17H8.49904ZM10.8779 2.32941C11.3188 3.11759 11.7295 4.13825 11.9906 5.43493C12.6552 5.32792 13.327 5.17766 14.092 4.97183C13.3377 3.77886 12.2122 2.84395 10.8779 2.32941ZM10.1016 5.63029C9.85063 4.48196 9.47078 3.641 9.10943 3.04571C8.89353 2.69011 8.68093 2.41687 8.50002 2.21443C8.31911 2.41687 8.10655 2.69011 7.89065 3.04571C7.53519 3.63118 7.16197 4.45425 6.91097 5.57366C7.47253 5.6312 8.01567 5.66668 8.50002 5.66668C9.08506 5.66668 9.60999 5.65584 10.1016 5.63029ZM6.64613 7.44515C7.28705 7.51253 7.92216 7.55557 8.50002 7.55557C9.17856 7.55557 9.7866 7.54123 10.3581 7.50771C10.3781 7.82256 10.3889 8.15312 10.3889 8.50002C10.3889 8.84691 10.3781 9.17748 10.3581 9.49231C9.7866 9.45878 9.17856 9.44443 8.50002 9.44443C7.92216 9.44443 7.28705 9.48749 6.64613 9.55493C6.62339 9.22134 6.61113 8.86997 6.61113 8.50002C6.61113 8.13007 6.62339 7.7787 6.64613 7.44515ZM5.0332 5.31979C5.29501 4.07766 5.69441 3.09412 6.12218 2.32941C4.80378 2.83779 3.68931 3.75653 2.93532 4.92907C3.32417 5.01019 3.82443 5.10966 4.38313 5.20906C4.59386 5.24654 4.81141 5.28374 5.0332 5.31979ZM4.77071 7.19084C4.73918 7.60543 4.72224 8.04154 4.72224 8.50002C4.72224 8.9585 4.73918 9.39461 4.77071 9.80917C4.52234 9.84931 4.28166 9.89049 4.05229 9.93129C3.37603 10.0516 2.78321 10.1718 2.35913 10.262C2.27991 10.2788 2.20651 10.2947 2.13951 10.3093C1.97627 9.73428 1.8889 9.12734 1.8889 8.50002C1.8889 7.8727 1.97627 7.26579 2.13951 6.69079C2.20651 6.70537 2.27991 6.72118 2.35913 6.73803C2.78321 6.82823 3.37603 6.94844 4.05229 7.06875C4.28166 7.10956 4.52234 7.15069 4.77071 7.19084ZM5.0332 11.6802C4.81141 11.7163 4.59386 11.7535 4.38313 11.791C3.82443 11.8904 3.32417 11.9898 2.93532 12.0709C3.68931 13.2436 4.80378 14.1622 6.12218 14.6706C5.69441 13.9059 5.29501 12.9224 5.0332 11.6802ZM10.8779 14.6706C11.3188 13.8825 11.7295 12.8618 11.9906 11.5651C12.6552 11.6721 13.327 11.8224 14.092 12.0282C13.3377 13.2212 12.2122 14.1561 10.8779 14.6706ZM10.1016 11.3698C9.60999 11.3442 9.08506 11.3333 8.50002 11.3333C8.01567 11.3333 7.47253 11.3688 6.91097 11.4263C7.16197 12.5458 7.53519 13.3689 7.89065 13.9543C8.10655 14.3099 8.31911 14.5832 8.50002 14.7856C8.68093 14.5832 8.89353 14.3099 9.10943 13.9543C9.47078 13.3591 9.85063 12.518 10.1016 11.3698ZM12.2378 9.69178C13.0656 9.82258 13.8998 10.0134 14.8681 10.2822C15.0265 9.71529 15.1111 9.11755 15.1111 8.50002C15.1111 7.88249 15.0265 7.28475 14.8681 6.71775C13.8998 6.98667 13.0656 7.17742 12.2378 7.30825C12.2639 7.68757 12.2778 8.0846 12.2778 8.50002C12.2778 8.91543 12.2639 9.31248 12.2378 9.69178Z"/>
    </symbol>
     <symbol viewBox="0 0 5 3" xmlns="http://www.w3.org/2000/svg" id="Triangle_down">
      <defs><style> {fill-rule: evenodd;}</style></defs>
      <path id="Rectangle_323_copy_16" data-name="Rectangle 323 copy 16"  d="M826,200h5l-2.514,3Z" transform="translate(-826 -200)"/>
    </symbol>
     <symbol viewBox="0 0 17 17" xmlns="http://www.w3.org/2000/svg" id="search">
        <path  d="M16.709,16.719a1,1,0,0,1-1.412,0l-3.256-3.287A7.475,7.475,0,1,1,15,7.5a7.433,7.433,0,0,1-1.549,4.518l3.258,3.289A1,1,0,0,1,16.709,16.719ZM7.5,2A5.5,5.5,0,1,0,13,7.5,5.5,5.5,0,0,0,7.5,2Z"></path>
    </symbol>
    <symbol width="36" height="47" viewBox="0 0 36 47" xmlns="http://www.w3.org/2000/svg" id="user">
        <path d="M18 28C24.6274 28 30 22.6274 30 16C30 9.37258 24.6274 4 18 4C11.3726 4 6 9.37258 6 16C6 22.6274 11.3726 28 18 28Z" stroke="#101010" stroke-width="2" stroke-miterlimit="10"/>
        <path d="M18 20C20.7614 20 23 17.7614 23 15C23 12.2386 20.7614 10 18 10C15.2386 10 13 12.2386 13 15C13 17.7614 15.2386 20 18 20Z" stroke="#101010" stroke-width="2" stroke-miterlimit="10"/>
        <path d="M9.9751 24.9218C10.7284 23.4408 11.8767 22.1971 13.2931 21.3284C14.7095 20.4598 16.3387 20 18.0002 20C19.6617 20 21.2909 20.4598 22.7073 21.3284C24.1237 22.1971 25.272 23.4407 26.0253 24.9217" stroke="#101010" stroke-width="2" stroke-linecap="round" stroke-linejoin="round"/>
        <path d="M0.958807 44V35.2727H4.15483C4.77415 35.2727 5.28693 35.375 5.69318 35.5795C6.09943 35.7812 6.40341 36.0554 6.60511 36.402C6.80682 36.7457 6.90767 37.1335 6.90767 37.5653C6.90767 37.929 6.84091 38.2358 6.70739 38.4858C6.57386 38.733 6.39489 38.9318 6.17045 39.0824C5.94886 39.2301 5.70455 39.3381 5.4375 39.4062V39.4915C5.72727 39.5057 6.00994 39.5994 6.28551 39.7727C6.56392 39.9432 6.79403 40.1861 6.97585 40.5014C7.15767 40.8168 7.24858 41.2003 7.24858 41.652C7.24858 42.098 7.14347 42.4986 6.93324 42.8537C6.72585 43.206 6.40483 43.4858 5.97017 43.6932C5.53551 43.8977 4.98011 44 4.30398 44H0.958807ZM2.27557 42.8707H4.17614C4.80682 42.8707 5.25852 42.7486 5.53125 42.5043C5.80398 42.2599 5.94034 41.9545 5.94034 41.5881C5.94034 41.3125 5.87074 41.0597 5.73153 40.8295C5.59233 40.5994 5.39347 40.4162 5.13494 40.2798C4.87926 40.1435 4.57528 40.0753 4.22301 40.0753H2.27557V42.8707ZM2.27557 39.0483H4.03977C4.33523 39.0483 4.60085 38.9915 4.83665 38.8778C5.07528 38.7642 5.2642 38.6051 5.40341 38.4006C5.54545 38.1932 5.61648 37.9489 5.61648 37.6676C5.61648 37.3068 5.49006 37.0043 5.23722 36.7599C4.98438 36.5156 4.59659 36.3935 4.07386 36.3935H2.27557V39.0483ZM11.4652 44.1321C10.8516 44.1321 10.3161 43.9915 9.85866 43.7102C9.40128 43.429 9.04616 43.0355 8.79332 42.5298C8.54048 42.0241 8.41406 41.4332 8.41406 40.7571C8.41406 40.0781 8.54048 39.4844 8.79332 38.9759C9.04616 38.4673 9.40128 38.0724 9.85866 37.7912C10.3161 37.5099 10.8516 37.3693 11.4652 37.3693C12.0788 37.3693 12.6143 37.5099 13.0717 37.7912C13.5291 38.0724 13.8842 38.4673 14.1371 38.9759C14.3899 39.4844 14.5163 40.0781 14.5163 40.7571C14.5163 41.4332 14.3899 42.0241 14.1371 42.5298C13.8842 43.0355 13.5291 43.429 13.0717 43.7102C12.6143 43.9915 12.0788 44.1321 11.4652 44.1321ZM11.4695 43.0625C11.8672 43.0625 12.1967 42.9574 12.4581 42.7472C12.7195 42.5369 12.9126 42.2571 13.0376 41.9077C13.1655 41.5582 13.2294 41.1733 13.2294 40.7528C13.2294 40.3352 13.1655 39.9517 13.0376 39.6023C12.9126 39.25 12.7195 38.9673 12.4581 38.7543C12.1967 38.5412 11.8672 38.4347 11.4695 38.4347C11.0689 38.4347 10.7365 38.5412 10.4723 38.7543C10.2109 38.9673 10.0163 39.25 9.88849 39.6023C9.76349 39.9517 9.70099 40.3352 9.70099 40.7528C9.70099 41.1733 9.76349 41.5582 9.88849 41.9077C10.0163 42.2571 10.2109 42.5369 10.4723 42.7472C10.7365 42.9574 11.0689 43.0625 11.4695 43.0625ZM17.1871 42.2145L20.0721 37.4545H21.4442V44H20.1957V39.2358L17.3235 44H15.9386V37.4545H17.1871V42.2145ZM19.5266 35.2386H20.5749C20.5749 35.7187 20.4045 36.1094 20.0636 36.4105C19.7255 36.7088 19.2681 36.858 18.6914 36.858C18.1175 36.858 17.6616 36.7088 17.3235 36.4105C16.9854 36.1094 16.8164 35.7187 16.8164 35.2386H17.8604C17.8604 35.4517 17.9229 35.6406 18.0479 35.8054C18.1729 35.9673 18.3874 36.0483 18.6914 36.0483C18.9897 36.0483 19.2028 35.9673 19.3306 35.8054C19.4613 35.6435 19.5266 35.4545 19.5266 35.2386ZM22.3455 38.554V37.4545H27.8683V38.554H25.7333V44H24.489V38.554H22.3455ZM30.4645 42.2145L33.3494 37.4545H34.7216V44H33.473V39.2358L30.6009 44H29.2159V37.4545H30.4645V42.2145Z" fill="#101010"/>
    </symbol>
    <symbol viewBox="0 0 18 17" xmlns="http://www.w3.org/2000/svg" id="compare">
       <defs><style> {fill: #333; fill-rule: evenodd;}</style></defs>
        <path id="Rounded_Rectangle_865" data-name="Rounded Rectangle 865"  d="M597,78a1,1,0,0,1,1,1v9a1,1,0,0,1-2,0V79A1,1,0,0,1,597,78Zm4-6a1,1,0,0,1,1,1V88a1,1,0,0,1-2,0V73A1,1,0,0,1,601,72Zm4,8a1,1,0,0,1,1,1v7a1,1,0,0,1-2,0V81A1,1,0,0,1,605,80Zm-12-5a1,1,0,0,1,1,1V88a1,1,0,0,1-2,0V76A1,1,0,0,1,593,75Zm-4,5a1,1,0,0,1,1,1v7a1,1,0,0,1-2,0V81A1,1,0,0,1,589,80Z" transform="translate(-588 -72)"/>
    </symbol>
    <symbol viewBox="0 0 20 16" xmlns="http://www.w3.org/2000/svg" id="chosen">
        <path id="Ellipse_270_copy_3" data-name="Ellipse 270 copy 3" d="M682.741,81.962L682.75,82l-0.157.142a5.508,5.508,0,0,1-1.009.911L675,89h-2l-6.5-5.9a5.507,5.507,0,0,1-1.188-1.078l-0.057-.052,0-.013A5.484,5.484,0,1,1,674,75.35,5.485,5.485,0,1,1,682.741,81.962ZM678.5,75a3.487,3.487,0,0,0-3.446,3H675a1,1,0,0,1-2,0h-0.054a3.491,3.491,0,1,0-5.924,2.971L667,81l7,6,7-6-0.023-.028A3.5,3.5,0,0,0,678.5,75Z" transform="translate(-664 -73)"/>
    </symbol>
    <symbol viewBox="0 0 34 33" xmlns="http://www.w3.org/2000/svg" id="basket">
        <path d="M23 23.5H8.72727L5.2402 4.32112C5.19831 4.0907 5.07688 3.8823 4.89708 3.73225C4.71728 3.58219 4.49052 3.5 4.25633 3.5H2" stroke="#101010" stroke-width="2" stroke-linecap="round" stroke-linejoin="round"/>
        <path d="M10 28.5C11.3807 28.5 12.5 27.3807 12.5 26C12.5 24.6193 11.3807 23.5 10 23.5C8.61929 23.5 7.5 24.6193 7.5 26C7.5 27.3807 8.61929 28.5 10 28.5Z" stroke="#101010" stroke-width="2" stroke-linecap="round" stroke-linejoin="round"/>
        <path d="M23 28.5C24.3807 28.5 25.5 27.3807 25.5 26C25.5 24.6193 24.3807 23.5 23 23.5C21.6193 23.5 20.5 24.6193 20.5 26C20.5 27.3807 21.6193 28.5 23 28.5Z" stroke="#101010" stroke-width="2" stroke-linecap="round" stroke-linejoin="round"/>
        <path d="M7.81818 18.5H23.5127C23.981 18.5 24.4346 18.3356 24.7942 18.0355C25.1538 17.7354 25.3966 17.3186 25.4804 16.8578L27 8.5H6" stroke="#101010" stroke-width="2" stroke-linecap="round" stroke-linejoin="round"/>
        <circle cx="28" cy="6" r="6" fill="#E6A128"/>
    </symbol>
    <symbol viewBox="0 0 18 18" xmlns="http://www.w3.org/2000/svg" id="callback">
        <path data-name="Shape 915 copy 16"  d="M1675.69,597.707l-4.3,4.291H1674a1,1,0,0,1,0,2h-5a1,1,0,0,1-1-1v-5a1,1,0,0,1,2,0v2.543l4.26-4.26A1.01,1.01,0,0,1,1675.69,597.707Zm-8.11,16.264a8.9,8.9,0,0,1-4.36-2.409c-0.35-.367-0.8-0.727-1.21-1.156h0l-0.64-.686h0c-0.4-.435-0.74-0.92-1.09-1.287a9.933,9.933,0,0,1-2.25-4.649,5.628,5.628,0,0,1,1.67-4.627c1.95-1.926,3.6-1.073,4.56-.065a5.46,5.46,0,0,1,1.71,3.785c-0.03,1.845-1.18,2.391-.96,2.584,0.08,0.071.23,0.244,0.4,0.427l0.64,0.685a5.412,5.412,0,0,1,.4.43c0.19,0.236.7-1,2.43-1.025a3.56,3.56,0,0,1,3.09,1.342,3.332,3.332,0,0,1-.06,4.865A4.921,4.921,0,0,1,1667.58,613.971Zm3.33-4.872a2.043,2.043,0,0,0-1.69-1.105,2.271,2.271,0,0,0-2.39.891c-0.66.713-1.25-.121-2.12-1.034l-0.65-.686c-0.85-.935-1.63-1.561-0.97-2.264a2.436,2.436,0,0,0,.94-2.393,4.038,4.038,0,0,0-1.44-2.463,1.665,1.665,0,0,0-1.79.47,3.94,3.94,0,0,0-.8,2.894,7.779,7.779,0,0,0,1.52,3.62c0.23,0.263.63,0.8,1.13,1.32l0.65,0.686c0.49,0.533.99,0.966,1.23,1.206a7.023,7.023,0,0,0,3.4,1.741,3.056,3.056,0,0,0,2.54-.972A1.955,1.955,0,0,0,1670.91,609.1Z" transform="translate(-1658 -596)"/>
    </symbol>
    <symbol viewBox="0 0 19 20" xmlns="http://www.w3.org/2000/svg" id="review">
        <path  d="M1715,611h-6l-4,4h-1l-1-1v-3h-1a3,3,0,0,1-3-3V598a3,3,0,0,1,3-3h13a3,3,0,0,1,3,3v10A3,3,0,0,1,1715,611Zm1-13a1,1,0,0,0-1-1h-13a1,1,0,0,0-1,1v10a1,1,0,0,0,1,1h2a1,1,0,0,1,1,1v2.207l3.23-3.208H1715a1,1,0,0,0,1-1V598Zm-5,8a1.986,1.986,0,0,1-1.79-2.875l0.9-2.615a1.035,1.035,0,0,1,1.4-.424,1.047,1.047,0,0,1,.33,1.425l-0.21.6A1.994,1.994,0,0,1,1711,606Zm-5,0a2,2,0,0,1-2-2,1.981,1.981,0,0,1,.21-0.876l0.9-2.615a1.035,1.035,0,0,1,1.4-.424,1.047,1.047,0,0,1,.33,1.425l-0.21.6A1.994,1.994,0,0,1,1706,606Z" transform="translate(-1699 -595)"/>
    </symbol>
      <symbol viewBox="0 0 19 14" xmlns="http://www.w3.org/2000/svg" id="ask">
        <path  d="M1695,612h-15a2,2,0,0,1-2-2V600a2,2,0,0,1,2-2h15a2,2,0,0,1,2,2v10A2,2,0,0,1,1695,612Zm-13.88-2h12.75l-3.12-2.929,1.62-1.134L1695,608.3v-6.2l-7,4.9h-1l-7-4.9v6.2l2.62-2.363,1.62,1.128Zm13.46-10h-14.16l7.07,5Z" transform="translate(-1678 -598)"/>
    </symbol>
    <symbol width="36" height="47" viewBox="0 0 36 47" xmlns="http://www.w3.org/2000/svg" id="user_login">
        <path d="M18 28C24.6274 28 30 22.6274 30 16C30 9.37258 24.6274 4 18 4C11.3726 4 6 9.37258 6 16C6 22.6274 11.3726 28 18 28Z" stroke="#101010" stroke-width="2" stroke-miterlimit="10"/>
        <path d="M18 20C20.7614 20 23 17.7614 23 15C23 12.2386 20.7614 10 18 10C15.2386 10 13 12.2386 13 15C13 17.7614 15.2386 20 18 20Z" stroke="#101010" stroke-width="2" stroke-miterlimit="10"/>
        <path d="M9.9751 24.9218C10.7284 23.4408 11.8767 22.1971 13.2931 21.3284C14.7095 20.4598 16.3387 20 18.0002 20C19.6617 20 21.2909 20.4598 22.7073 21.3284C24.1237 22.1971 25.272 23.4407 26.0253 24.9217" stroke="#101010" stroke-width="2" stroke-linecap="round" stroke-linejoin="round"/>
        <path d="M0.958807 44V35.2727H4.15483C4.77415 35.2727 5.28693 35.375 5.69318 35.5795C6.09943 35.7812 6.40341 36.0554 6.60511 36.402C6.80682 36.7457 6.90767 37.1335 6.90767 37.5653C6.90767 37.929 6.84091 38.2358 6.70739 38.4858C6.57386 38.733 6.39489 38.9318 6.17045 39.0824C5.94886 39.2301 5.70455 39.3381 5.4375 39.4062V39.4915C5.72727 39.5057 6.00994 39.5994 6.28551 39.7727C6.56392 39.9432 6.79403 40.1861 6.97585 40.5014C7.15767 40.8168 7.24858 41.2003 7.24858 41.652C7.24858 42.098 7.14347 42.4986 6.93324 42.8537C6.72585 43.206 6.40483 43.4858 5.97017 43.6932C5.53551 43.8977 4.98011 44 4.30398 44H0.958807ZM2.27557 42.8707H4.17614C4.80682 42.8707 5.25852 42.7486 5.53125 42.5043C5.80398 42.2599 5.94034 41.9545 5.94034 41.5881C5.94034 41.3125 5.87074 41.0597 5.73153 40.8295C5.59233 40.5994 5.39347 40.4162 5.13494 40.2798C4.87926 40.1435 4.57528 40.0753 4.22301 40.0753H2.27557V42.8707ZM2.27557 39.0483H4.03977C4.33523 39.0483 4.60085 38.9915 4.83665 38.8778C5.07528 38.7642 5.2642 38.6051 5.40341 38.4006C5.54545 38.1932 5.61648 37.9489 5.61648 37.6676C5.61648 37.3068 5.49006 37.0043 5.23722 36.7599C4.98438 36.5156 4.59659 36.3935 4.07386 36.3935H2.27557V39.0483ZM11.4652 44.1321C10.8516 44.1321 10.3161 43.9915 9.85866 43.7102C9.40128 43.429 9.04616 43.0355 8.79332 42.5298C8.54048 42.0241 8.41406 41.4332 8.41406 40.7571C8.41406 40.0781 8.54048 39.4844 8.79332 38.9759C9.04616 38.4673 9.40128 38.0724 9.85866 37.7912C10.3161 37.5099 10.8516 37.3693 11.4652 37.3693C12.0788 37.3693 12.6143 37.5099 13.0717 37.7912C13.5291 38.0724 13.8842 38.4673 14.1371 38.9759C14.3899 39.4844 14.5163 40.0781 14.5163 40.7571C14.5163 41.4332 14.3899 42.0241 14.1371 42.5298C13.8842 43.0355 13.5291 43.429 13.0717 43.7102C12.6143 43.9915 12.0788 44.1321 11.4652 44.1321ZM11.4695 43.0625C11.8672 43.0625 12.1967 42.9574 12.4581 42.7472C12.7195 42.5369 12.9126 42.2571 13.0376 41.9077C13.1655 41.5582 13.2294 41.1733 13.2294 40.7528C13.2294 40.3352 13.1655 39.9517 13.0376 39.6023C12.9126 39.25 12.7195 38.9673 12.4581 38.7543C12.1967 38.5412 11.8672 38.4347 11.4695 38.4347C11.0689 38.4347 10.7365 38.5412 10.4723 38.7543C10.2109 38.9673 10.0163 39.25 9.88849 39.6023C9.76349 39.9517 9.70099 40.3352 9.70099 40.7528C9.70099 41.1733 9.76349 41.5582 9.88849 41.9077C10.0163 42.2571 10.2109 42.5369 10.4723 42.7472C10.7365 42.9574 11.0689 43.0625 11.4695 43.0625ZM17.1871 42.2145L20.0721 37.4545H21.4442V44H20.1957V39.2358L17.3235 44H15.9386V37.4545H17.1871V42.2145ZM19.5266 35.2386H20.5749C20.5749 35.7187 20.4045 36.1094 20.0636 36.4105C19.7255 36.7088 19.2681 36.858 18.6914 36.858C18.1175 36.858 17.6616 36.7088 17.3235 36.4105C16.9854 36.1094 16.8164 35.7187 16.8164 35.2386H17.8604C17.8604 35.4517 17.9229 35.6406 18.0479 35.8054C18.1729 35.9673 18.3874 36.0483 18.6914 36.0483C18.9897 36.0483 19.2028 35.9673 19.3306 35.8054C19.4613 35.6435 19.5266 35.4545 19.5266 35.2386ZM22.3455 38.554V37.4545H27.8683V38.554H25.7333V44H24.489V38.554H22.3455ZM30.4645 42.2145L33.3494 37.4545H34.7216V44H33.473V39.2358L30.6009 44H29.2159V37.4545H30.4645V42.2145Z" fill="#101010"/>
    </symbol>
     <symbol viewBox="0 0 13 13" xmlns="http://www.w3.org/2000/svg" id="location">
        <path data-name="Rounded Rectangle 866 copy"  d="M910.931,77.494l0.007,0.006-3.049,9.55a1.489,1.489,0,0,1-2.744.075h-0.02l-1.438-4.812-4.562-1.344,0-.045a1.474,1.474,0,0,1-.244-2.779l0-.019,9.625-3.062,0.006,0.006A1.977,1.977,0,0,1,911,77,1.963,1.963,0,0,1,910.931,77.494Zm-10.4,1.975,3.359,1.2,1.4-1.372a1,1,0,1,1,1.414,1.414l-1.374,1.346,1.138,3.414,2.5-8.375Z" transform="translate(-898 -75)"></path>
    </symbol>
     <symbol viewBox="0 0 5 13" xmlns="http://www.w3.org/2000/svg" id="phone_black">
       <path class="cls-phone" d="M785.738,193.457a22.174,22.174,0,0,0,1.136,2.041,0.62,0.62,0,0,1-.144.869l-0.3.3a0.908,0.908,0,0,1-.805.33,4.014,4.014,0,0,1-1.491-.274c-1.2-.679-1.657-2.35-1.9-3.664a13.4,13.4,0,0,1,.024-5.081c0.255-1.316.73-2.991,1.935-3.685a4.025,4.025,0,0,1,1.493-.288,0.888,0.888,0,0,1,.8.322l0.3,0.3a0.634,0.634,0,0,1,.113.875c-0.454.8-.788,1.37-1.132,2.045-0.143.28-.266,0.258-0.557,0.214l-0.468-.072a0.532,0.532,0,0,0-.7.366,8.047,8.047,0,0,0-.023,4.909,0.521,0.521,0,0,0,.7.358l0.468-.075c0.291-.048.4-0.066,0.555,0.207h0Z" transform="translate(-782 -184)"/>
    </symbol>
     <symbol viewBox="0 0 5 11" xmlns="http://www.w3.org/2000/svg" id="phone_footer">
        <path id="Shape_51_copy_13" data-name="Shape 51 copy 13"  d="M402.738,141a18.086,18.086,0,0,0,1.136,1.727,0.474,0.474,0,0,1-.144.735l-0.3.257a1,1,0,0,1-.805.279,4.641,4.641,0,0,1-1.491-.232,4.228,4.228,0,0,1-1.9-3.1,9.614,9.614,0,0,1,.025-4.3,4.335,4.335,0,0,1,1.934-3.118,4.707,4.707,0,0,1,1.493-.244,0.974,0.974,0,0,1,.8.272l0.3,0.255a0.481,0.481,0,0,1,.113.739c-0.454.677-.788,1.159-1.132,1.731a0.43,0.43,0,0,1-.557.181l-0.468-.061a0.553,0.553,0,0,0-.7.309,6.205,6.205,0,0,0-.395,2.079,6.128,6.128,0,0,0,.372,2.076,0.541,0.541,0,0,0,.7.3l0.468-.063a0.432,0.432,0,0,1,.555.175h0Z" transform="translate(-399 -133)"></path>
    </symbol>    
</svg>



