<svg width="236" height="50" viewBox="0 0 236 50" fill="none" xmlns="http://www.w3.org/2000/svg">
<path d="M64.6996 40.9091C64.6996 41.9697 64.5107 42.8928 64.1328 43.6783C63.755 44.4605 63.2346 45.067 62.5717 45.4979C61.9122 45.9254 61.1532 46.1392 60.2947 46.1392C59.4363 46.1392 58.6757 45.9254 58.0128 45.4979C57.3532 45.067 56.8345 44.4605 56.4567 43.6783C56.0821 42.8928 55.8949 41.9697 55.8949 40.9091C55.8949 39.8485 56.0821 38.9271 56.4567 38.1449C56.8345 37.3594 57.3549 36.7528 58.0178 36.3253C58.6806 35.8944 59.4396 35.679 60.2947 35.679C61.1532 35.679 61.9122 35.8944 62.5717 36.3253C63.2346 36.7528 63.755 37.3594 64.1328 38.1449C64.5107 38.9271 64.6996 39.8485 64.6996 40.9091ZM63.7947 40.9091C63.7947 39.9976 63.6423 39.2171 63.3374 38.5675C63.0324 37.9145 62.6165 37.4157 62.0895 37.071C61.5625 36.7263 60.9643 36.554 60.2947 36.554C59.6286 36.554 59.032 36.7263 58.505 37.071C57.978 37.4157 57.5604 37.9129 57.2521 38.5625C56.9472 39.2121 56.7947 39.9943 56.7947 40.9091C56.7947 41.8205 56.9472 42.6011 57.2521 43.2507C57.5571 43.9003 57.973 44.3991 58.5 44.7472C59.027 45.0919 59.6252 45.2642 60.2947 45.2642C60.9643 45.2642 61.5625 45.0919 62.0895 44.7472C62.6198 44.4025 63.0374 43.9053 63.3423 43.2557C63.6473 42.6027 63.7981 41.8205 63.7947 40.9091ZM69.747 46.1591C69.0642 46.1591 68.4693 45.9884 67.9622 45.647C67.4584 45.3056 67.0673 44.8383 66.7889 44.245C66.5105 43.6518 66.3713 42.9756 66.3713 42.2166C66.3713 41.451 66.5121 40.7699 66.7939 40.1733C67.0789 39.5767 67.4733 39.1094 67.9771 38.7713C68.4809 38.4299 69.0659 38.2592 69.7321 38.2592C70.2425 38.2592 70.7048 38.3587 71.1191 38.5575C71.5334 38.7531 71.8748 39.0298 72.1433 39.3878C72.4151 39.7424 72.5858 40.1567 72.6554 40.6307H71.7605C71.6677 40.1998 71.444 39.8319 71.0893 39.527C70.738 39.2187 70.2905 39.0646 69.747 39.0646C69.2598 39.0646 68.8289 39.1972 68.4544 39.4624C68.0798 39.7242 67.7865 40.0904 67.5744 40.5611C67.3656 41.0284 67.2612 41.5703 67.2612 42.1868C67.2612 42.8066 67.3639 43.3551 67.5694 43.8324C67.7749 44.3063 68.0633 44.6776 68.4345 44.946C68.809 45.2145 69.2465 45.3487 69.747 45.3487C70.0851 45.3487 70.3933 45.2857 70.6717 45.1598C70.9534 45.0305 71.1887 44.8482 71.3777 44.6129C71.5699 44.3776 71.6992 44.0975 71.7654 43.7727H72.6603C72.594 44.2334 72.43 44.6444 72.1681 45.0057C71.9096 45.3636 71.5732 45.6454 71.1589 45.8509C70.7479 46.0563 70.2773 46.1591 69.747 46.1591ZM79.7125 41.7692V42.6044H75.2232V41.7692H79.7125ZM75.4419 38.3636V46H74.557V38.3636H75.4419ZM80.3638 38.3636V46H79.4789V38.3636H80.3638ZM84.8519 46.174C84.3912 46.174 83.9703 46.0845 83.5891 45.9055C83.208 45.7232 82.9047 45.4614 82.6793 45.12C82.454 44.7753 82.3413 44.3577 82.3413 43.8672C82.3413 43.4893 82.4125 43.1712 82.555 42.9126C82.6976 42.6541 82.8997 42.442 83.1616 42.2763C83.4234 42.1106 83.7333 41.9796 84.0913 41.8835C84.4492 41.7874 84.8436 41.7128 85.2745 41.6598C85.7021 41.6068 86.0633 41.5604 86.3583 41.5206C86.6566 41.4808 86.8836 41.4179 87.0394 41.3317C87.1952 41.2455 87.2731 41.1063 87.2731 40.9141V40.7351C87.2731 40.2147 87.1173 39.8054 86.8058 39.5071C86.4975 39.2055 86.0534 39.0547 85.4734 39.0547C84.9232 39.0547 84.4741 39.1757 84.1261 39.4176C83.7814 39.6596 83.5394 39.9446 83.4002 40.2727L82.56 39.9695C82.7324 39.5518 82.971 39.2187 83.2759 38.9702C83.5808 38.7183 83.9222 38.5376 84.3001 38.4283C84.6779 38.3156 85.0607 38.2592 85.4485 38.2592C85.7402 38.2592 86.0434 38.2973 86.3583 38.3736C86.6765 38.4498 86.9715 38.5824 87.2433 38.7713C87.515 38.9569 87.7354 39.2171 87.9045 39.5518C88.0735 39.8833 88.158 40.3042 88.158 40.8146V46H87.2731V44.7919H87.2184C87.1123 45.0173 86.9549 45.236 86.7461 45.4482C86.5373 45.6603 86.2754 45.8343 85.9606 45.9702C85.6457 46.1061 85.2762 46.174 84.8519 46.174ZM84.9712 45.3636C85.4419 45.3636 85.8496 45.2592 86.1942 45.0504C86.5389 44.8416 86.8041 44.5649 86.9897 44.2202C87.1786 43.8722 87.2731 43.4893 87.2731 43.0717V41.968C87.2068 42.031 87.0958 42.0874 86.94 42.1371C86.7875 42.1868 86.6102 42.2315 86.408 42.2713C86.2092 42.3078 86.0103 42.3393 85.8114 42.3658C85.6126 42.3923 85.4336 42.4155 85.2745 42.4354C84.8436 42.4884 84.4757 42.5713 84.1708 42.6839C83.8659 42.7966 83.6322 42.9524 83.4698 43.1513C83.3074 43.3468 83.2262 43.5987 83.2262 43.907C83.2262 44.371 83.3919 44.7306 83.7234 44.9858C84.0548 45.2377 84.4708 45.3636 84.9712 45.3636ZM100.386 45.1648L100.246 48.1925H99.3714V46H98.4169V45.1648H100.386ZM90.5121 38.3636H91.397V45.1648H94.5291V38.3636H95.4141V45.1648H98.5462V38.3636H99.4311V46H90.5121V38.3636ZM105.207 46.1591C104.494 46.1591 103.878 45.9934 103.357 45.6619C102.837 45.3272 102.434 44.8648 102.149 44.2749C101.868 43.6816 101.727 42.9988 101.727 42.2266C101.727 41.4576 101.868 40.7749 102.149 40.1783C102.434 39.5784 102.827 39.1094 103.328 38.7713C103.831 38.4299 104.413 38.2592 105.073 38.2592C105.487 38.2592 105.886 38.3355 106.271 38.4879C106.655 38.6371 107 38.8674 107.305 39.179C107.613 39.4872 107.857 39.8767 108.036 40.3473C108.215 40.8146 108.304 41.3681 108.304 42.0078V42.4453H102.338V41.6648H107.399C107.399 41.1742 107.3 40.7334 107.101 40.3423C106.905 39.9479 106.632 39.6364 106.281 39.4077C105.933 39.179 105.53 39.0646 105.073 39.0646C104.589 39.0646 104.163 39.1939 103.795 39.4524C103.427 39.7109 103.139 40.0523 102.93 40.4766C102.724 40.9008 102.62 41.3648 102.617 41.8686V42.3359C102.617 42.9425 102.721 43.4728 102.93 43.9268C103.142 44.3776 103.442 44.7273 103.83 44.9759C104.218 45.2244 104.677 45.3487 105.207 45.3487C105.568 45.3487 105.885 45.2924 106.156 45.1797C106.432 45.067 106.662 44.9162 106.847 44.7273C107.036 44.535 107.179 44.3246 107.275 44.0959L108.115 44.3693C107.999 44.6908 107.809 44.9875 107.544 45.2592C107.282 45.531 106.954 45.7498 106.559 45.9155C106.168 46.0779 105.717 46.1591 105.207 46.1591ZM115.41 41.7692V42.6044H110.92V41.7692H115.41ZM111.139 38.3636V46H110.254V38.3636H111.139ZM116.061 38.3636V46H115.176V38.3636H116.061ZM119.301 44.7422L123.333 38.3636H124.392V46H123.507V39.6214L119.49 46H118.416V38.3636H119.301V44.7422ZM129.816 46.1591C129.104 46.1591 128.487 45.9934 127.967 45.6619C127.446 45.3272 127.044 44.8648 126.759 44.2749C126.477 43.6816 126.336 42.9988 126.336 42.2266C126.336 41.4576 126.477 40.7749 126.759 40.1783C127.044 39.5784 127.436 39.1094 127.937 38.7713C128.441 38.4299 129.022 38.2592 129.682 38.2592C130.096 38.2592 130.496 38.3355 130.88 38.4879C131.265 38.6371 131.609 38.8674 131.914 39.179C132.222 39.4872 132.466 39.8767 132.645 40.3473C132.824 40.8146 132.914 41.3681 132.914 42.0078V42.4453H126.948V41.6648H132.009C132.009 41.1742 131.909 40.7334 131.71 40.3423C131.515 39.9479 131.241 39.6364 130.89 39.4077C130.542 39.179 130.139 39.0646 129.682 39.0646C129.198 39.0646 128.772 39.1939 128.404 39.4524C128.036 39.7109 127.748 40.0523 127.539 40.4766C127.334 40.9008 127.229 41.3648 127.226 41.8686V42.3359C127.226 42.9425 127.33 43.4728 127.539 43.9268C127.751 44.3776 128.051 44.7273 128.439 44.9759C128.827 45.2244 129.286 45.3487 129.816 45.3487C130.177 45.3487 130.494 45.2924 130.766 45.1797C131.041 45.067 131.271 44.9162 131.457 44.7273C131.646 44.535 131.788 44.3246 131.884 44.0959L132.725 44.3693C132.609 44.6908 132.418 44.9875 132.153 45.2592C131.891 45.531 131.563 45.7498 131.169 45.9155C130.777 46.0779 130.327 46.1591 129.816 46.1591ZM138.801 38.3636H139.686V45.1648H142.818V38.3636H143.703V45.1648H146.835V38.3636H147.72V46H138.801V38.3636ZM150.067 46V38.3636H150.952V41.799H151.782L154.621 38.3636H155.764L152.702 42.0376L155.834 46H154.69L152.055 42.6342H150.952V46H150.067ZM159.939 46.1591C159.28 46.1591 158.696 45.9917 158.189 45.657C157.685 45.3222 157.291 44.8598 157.006 44.2699C156.721 43.6766 156.578 42.9922 156.578 42.2166C156.578 41.4344 156.721 40.7467 157.006 40.1534C157.291 39.5568 157.685 39.0928 158.189 38.7614C158.696 38.4266 159.28 38.2592 159.939 38.2592C160.599 38.2592 161.18 38.4266 161.684 38.7614C162.188 39.0961 162.582 39.5601 162.867 40.1534C163.156 40.7467 163.3 41.4344 163.3 42.2166C163.3 42.9922 163.157 43.6766 162.872 44.2699C162.587 44.8598 162.191 45.3222 161.684 45.657C161.18 45.9917 160.599 46.1591 159.939 46.1591ZM159.939 45.3487C160.469 45.3487 160.919 45.2062 161.286 44.9212C161.654 44.6361 161.933 44.2566 162.122 43.7827C162.314 43.3087 162.41 42.7867 162.41 42.2166C162.41 41.6465 162.314 41.1229 162.122 40.6456C161.933 40.1683 161.654 39.7855 161.286 39.4972C160.919 39.2088 160.469 39.0646 159.939 39.0646C159.412 39.0646 158.963 39.2088 158.592 39.4972C158.224 39.7855 157.944 40.1683 157.752 40.6456C157.563 41.1229 157.468 41.6465 157.468 42.2166C157.468 42.7867 157.563 43.3087 157.752 43.7827C157.944 44.2566 158.224 44.6361 158.592 44.9212C158.96 45.2062 159.409 45.3487 159.939 45.3487ZM164.492 46V45.1648H164.73C165.002 45.1648 165.221 45.1151 165.387 45.0156C165.556 44.9129 165.687 44.7405 165.779 44.4986C165.872 44.2566 165.942 43.9268 165.988 43.5092C166.035 43.0916 166.071 42.5679 166.098 41.9382L166.262 38.3636H171.114V46H170.224V39.1989H167.102L166.958 42.2365C166.928 42.8563 166.878 43.4015 166.809 43.8722C166.742 44.3428 166.633 44.7356 166.48 45.0504C166.331 45.3653 166.123 45.6023 165.854 45.7614C165.589 45.9205 165.241 46 164.81 46H164.492ZM177.407 46V38.3636H183.189V46H182.299V39.1989H178.297V46H177.407ZM188.5 46.1591C187.84 46.1591 187.257 45.9917 186.75 45.657C186.246 45.3222 185.851 44.8598 185.566 44.2699C185.281 43.6766 185.139 42.9922 185.139 42.2166C185.139 41.4344 185.281 40.7467 185.566 40.1534C185.851 39.5568 186.246 39.0928 186.75 38.7614C187.257 38.4266 187.84 38.2592 188.5 38.2592C189.159 38.2592 189.741 38.4266 190.245 38.7614C190.748 39.0961 191.143 39.5601 191.428 40.1534C191.716 40.7467 191.86 41.4344 191.86 42.2166C191.86 42.9922 191.718 43.6766 191.433 44.2699C191.148 44.8598 190.752 45.3222 190.245 45.657C189.741 45.9917 189.159 46.1591 188.5 46.1591ZM188.5 45.3487C189.03 45.3487 189.479 45.2062 189.847 44.9212C190.215 44.6361 190.493 44.2566 190.682 43.7827C190.874 43.3087 190.971 42.7867 190.971 42.2166C190.971 41.6465 190.874 41.1229 190.682 40.6456C190.493 40.1683 190.215 39.7855 189.847 39.4972C189.479 39.2088 189.03 39.0646 188.5 39.0646C187.973 39.0646 187.524 39.2088 187.152 39.4972C186.784 39.7855 186.504 40.1683 186.312 40.6456C186.123 41.1229 186.029 41.6465 186.029 42.2166C186.029 42.7867 186.123 43.3087 186.312 43.7827C186.504 44.2566 186.784 44.6361 187.152 44.9212C187.52 45.2062 187.969 45.3487 188.5 45.3487ZM201.265 37.071H202.653C203.392 37.071 204.046 37.2384 204.616 37.5732C205.19 37.9079 205.639 38.3752 205.964 38.9751C206.288 39.575 206.451 40.2711 206.451 41.0632C206.448 41.8587 206.283 42.5563 205.959 43.1562C205.637 43.7562 205.191 44.2251 204.621 44.5632C204.055 44.898 203.402 45.0653 202.662 45.0653H201.27C200.528 45.0653 199.87 44.898 199.297 44.5632C198.727 44.2285 198.279 43.7611 197.954 43.1612C197.63 42.5613 197.467 41.8636 197.467 41.0682C197.467 40.2794 197.63 39.585 197.954 38.9851C198.279 38.3852 198.727 37.9162 199.297 37.5781C199.87 37.2401 200.526 37.071 201.265 37.071ZM201.27 37.9062C200.651 37.9062 200.125 38.0421 199.694 38.3139C199.267 38.5824 198.942 38.9569 198.72 39.4375C198.501 39.9148 198.394 40.465 198.397 41.0881C198.397 41.7012 198.506 42.2448 198.725 42.7188C198.947 43.1894 199.27 43.5589 199.694 43.8274C200.122 44.0959 200.647 44.2301 201.27 44.2301H202.657C203.277 44.2301 203.799 44.0959 204.224 43.8274C204.651 43.5589 204.974 43.1877 205.193 42.7138C205.412 42.2365 205.521 41.6863 205.521 41.0632C205.521 40.4467 205.41 39.9015 205.188 39.4276C204.969 38.9503 204.646 38.5774 204.219 38.3089C203.791 38.0405 203.266 37.9062 202.643 37.9062H201.27ZM202.434 35.6392V46.4176H201.504V35.6392H202.434ZM214.644 35.8182V36.6534H209.628V46H208.698V35.8182H214.644ZM224.661 40.9091C224.661 41.9697 224.472 42.8928 224.094 43.6783C223.716 44.4605 223.196 45.067 222.533 45.4979C221.873 45.9254 221.114 46.1392 220.256 46.1392C219.397 46.1392 218.637 45.9254 217.974 45.4979C217.314 45.067 216.795 44.4605 216.418 43.6783C216.043 42.8928 215.856 41.9697 215.856 40.9091C215.856 39.8485 216.043 38.9271 216.418 38.1449C216.795 37.3594 217.316 36.7528 217.979 36.3253C218.642 35.8944 219.401 35.679 220.256 35.679C221.114 35.679 221.873 35.8944 222.533 36.3253C223.196 36.7528 223.716 37.3594 224.094 38.1449C224.472 38.9271 224.661 39.8485 224.661 40.9091ZM223.756 40.9091C223.756 39.9976 223.603 39.2171 223.298 38.5675C222.993 37.9145 222.577 37.4157 222.05 37.071C221.523 36.7263 220.925 36.554 220.256 36.554C219.589 36.554 218.993 36.7263 218.466 37.071C217.939 37.4157 217.521 37.9129 217.213 38.5625C216.908 39.2121 216.756 39.9943 216.756 40.9091C216.756 41.8205 216.908 42.6011 217.213 43.2507C217.518 43.9003 217.934 44.3991 218.461 44.7472C218.988 45.0919 219.586 45.2642 220.256 45.2642C220.925 45.2642 221.523 45.0919 222.05 44.7472C222.581 44.4025 222.998 43.9053 223.303 43.2557C223.608 42.6027 223.759 41.8205 223.756 40.9091ZM234.883 39H233.949C233.879 38.652 233.753 38.3305 233.571 38.0355C233.392 37.7372 233.166 37.477 232.895 37.255C232.623 37.0329 232.315 36.8606 231.97 36.7379C231.625 36.6153 231.252 36.554 230.851 36.554C230.208 36.554 229.622 36.7214 229.091 37.0561C228.564 37.3909 228.142 37.883 227.824 38.5327C227.509 39.179 227.351 39.9711 227.351 40.9091C227.351 41.8537 227.509 42.6491 227.824 43.2955C228.142 43.9418 228.564 44.4323 229.091 44.767C229.622 45.0985 230.208 45.2642 230.851 45.2642C231.252 45.2642 231.625 45.2029 231.97 45.0803C232.315 44.9576 232.623 44.7869 232.895 44.5682C233.166 44.3461 233.392 44.0859 233.571 43.7876C233.753 43.4893 233.879 43.1662 233.949 42.8182H234.883C234.8 43.2855 234.645 43.7214 234.416 44.1257C234.191 44.5268 233.902 44.8781 233.551 45.1797C233.203 45.4813 232.802 45.7166 232.348 45.8857C231.894 46.0547 231.395 46.1392 230.851 46.1392C229.996 46.1392 229.237 45.9254 228.574 45.4979C227.912 45.067 227.391 44.4605 227.013 43.6783C226.639 42.8961 226.452 41.973 226.452 40.9091C226.452 39.8452 226.639 38.9221 227.013 38.1399C227.391 37.3577 227.912 36.7528 228.574 36.3253C229.237 35.8944 229.996 35.679 230.851 35.679C231.395 35.679 231.894 35.7635 232.348 35.9325C232.802 36.0982 233.203 36.3336 233.551 36.6385C233.902 36.9401 234.191 37.2914 234.416 37.6925C234.645 38.0935 234.8 38.5294 234.883 39Z" fill="black" fill-opacity="0.45"/>
<path d="M73.8706 27.3372H69.0448L61.457 17.4415V27.3372H57.2686V6.21826H61.457V15.5408L68.7413 6.21826H73.5671L65.7062 16.476L73.8706 27.3372Z" fill="#03071B"/>
<path d="M91.9926 24.5878C89.8477 26.6997 87.2376 27.7557 84.162 27.7557C81.0864 27.7557 78.4811 26.6945 76.3464 24.5726C74.2117 22.4506 73.1445 19.8512 73.1445 16.7738C73.1445 13.6965 74.2117 11.0967 76.3464 8.97472C78.4811 6.85277 81.0864 5.79199 84.162 5.79199C87.2376 5.79199 89.8477 6.85277 91.9926 8.97472C94.1374 11.0967 95.2098 13.6965 95.2098 16.7738C95.2098 19.8512 94.1374 22.4558 91.9926 24.5878ZM79.2754 21.7519C80.5907 23.0391 82.2195 23.6827 84.162 23.6827C86.1044 23.6827 87.7333 23.0339 89.0485 21.7366C90.3637 20.4393 91.0213 18.7852 91.0213 16.7738C91.0213 14.7625 90.3637 13.1032 89.0485 11.7958C87.7333 10.4884 86.1044 9.83476 84.162 9.83476C82.2195 9.83476 80.5907 10.4884 79.2754 11.7958C77.9602 13.1032 77.3026 14.7625 77.3026 16.7738C77.3026 18.7852 77.9602 20.4445 79.2754 21.7519Z" fill="#03071B"/>
<path d="M110.229 6.21826H114.387V27.3372H110.229V18.5879H102.338V27.3372H98.1494V6.21826H102.338V14.6055H110.229V6.21826V6.21826Z" fill="#03071B"/>
<path d="M128.413 27.7557C125.216 27.7557 122.576 26.6997 120.491 24.5878C118.407 22.4759 117.365 19.8713 117.365 16.7738C117.365 13.6563 118.407 11.0464 120.491 8.94454C122.576 6.84271 125.216 5.79199 128.413 5.79199C130.335 5.79199 132.111 6.23931 133.739 7.13435C135.368 8.02939 136.638 9.24142 137.549 10.77L133.937 12.8517C133.411 11.9064 132.662 11.1671 131.691 10.6341C130.72 10.1011 129.627 9.83476 128.413 9.83476C126.349 9.83476 124.685 10.4784 123.42 11.7656C122.155 13.0529 121.523 14.7223 121.523 16.7738C121.523 18.8053 122.155 20.4646 123.42 21.7519C124.685 23.0391 126.349 23.6827 128.413 23.6827C129.627 23.6827 130.725 23.416 131.706 22.883C132.687 22.35 133.431 21.6211 133.937 20.6959L137.549 22.7776C136.638 24.3063 135.374 25.5179 133.755 26.4129C132.136 27.308 130.355 27.7557 128.413 27.7557V27.7557Z" fill="#03071B"/>
<path d="M154.697 6.21826V10.2007H148.961V27.3372H144.772V10.2007H139.066V6.21826H154.697V6.21826Z" fill="#03071B"/>
<path d="M169.146 27.3372L167.871 23.5358H159.404L158.129 27.3372H153.606L161.042 6.21826H166.233L173.699 27.3372H169.146ZM160.739 19.6439H166.566L163.653 11.0153L160.739 19.6439Z" fill="#03071B"/>
<path d="M187.837 6.21826H191.995V27.3372H187.837V18.5879H179.945V27.3372H175.757V6.21826H179.945V14.6055H187.837V6.21826V6.21826Z" fill="#03071B"/>
<path d="M210.296 6.21826V10.2007H204.56V27.3372H200.371V10.2007H194.665V6.21826H210.296V6.21826Z" fill="#03071B"/>
<path d="M224.446 27.3372L223.171 23.5358H214.703L213.429 27.3372H208.906L216.342 6.21826H221.532L228.999 27.3372H224.446V27.3372ZM216.039 19.6439H221.866L218.952 11.0153L216.039 19.6439V19.6439Z" fill="#03071B"/>
<path fill-rule="evenodd" clip-rule="evenodd" d="M16.3244 0H0V18.9318C0 23.2357 1.7199 27.3629 4.78131 30.4056C7.84272 33.4488 11.9948 35.1584 16.324 35.1584H16.3244V0V0Z" fill="#F8303B"/>
<path fill-rule="evenodd" clip-rule="evenodd" d="M36.1094 0.000402236C36.1094 8.20782 29.416 14.8609 21.1597 14.8609C19.2969 14.8609 18.0303 14.8609 18.0303 14.8609V0H36.1094V0.000402236V0.000402236Z" fill="#E6A128"/>
<path fill-rule="evenodd" clip-rule="evenodd" d="M18.0303 16.3485C18.0303 21.3382 20.0241 26.1232 23.5736 29.6515C27.1227 33.1797 31.9367 35.1617 36.9564 35.1617H38.2388V16.3481H18.0303V16.3485V16.3485Z" fill="#2C44B3"/>
</svg>
