<svg width="423" height="45" viewBox="0 0 423 45" fill="none" xmlns="http://www.w3.org/2000/svg">
<path d="M101.908 43.4858H91.9189L76.2134 23.753V43.4858H67.5439V1.37305H76.2134V19.9628L91.2907 1.37305H101.279L85.0085 21.8278L101.908 43.4858Z" fill="#03071B"/>
<path d="M139.416 38.0036C134.976 42.2149 129.574 44.3205 123.208 44.3205C116.842 44.3205 111.449 42.2044 107.031 37.9731C102.612 33.7418 100.403 28.5583 100.403 22.4218C100.403 16.2854 102.612 11.1011 107.031 6.86979C111.449 2.63846 116.842 0.523193 123.208 0.523193C129.574 0.523193 134.976 2.63846 139.416 6.86979C143.855 11.1011 146.075 16.2854 146.075 22.4218C146.075 28.5583 143.855 33.7522 139.416 38.0036ZM113.093 32.3484C115.816 34.9153 119.187 36.1987 123.208 36.1987C127.228 36.1987 130.6 34.9049 133.322 32.318C136.044 29.731 137.406 26.4326 137.406 22.4218C137.406 18.4111 136.044 15.1022 133.322 12.4953C130.6 9.88828 127.228 8.58479 123.208 8.58479C119.187 8.58479 115.816 9.88828 113.093 12.4953C110.371 15.1022 109.01 18.4111 109.01 22.4218C109.01 26.4326 110.371 29.7415 113.093 32.3484Z" fill="#03071B"/>
<path d="M177.163 1.37305H185.77V43.4858H177.163V26.0391H160.83V43.4858H152.16V1.37305H160.83V18.0978H177.163V1.37305Z" fill="#03071B"/>
<path d="M214.803 44.3205C208.186 44.3205 202.72 42.2149 198.406 38.0036C194.092 33.7923 191.936 28.5984 191.936 22.4218C191.936 16.2052 194.092 11.0009 198.406 6.80963C202.72 2.61841 208.186 0.523193 214.803 0.523193C218.782 0.523193 222.456 1.41518 225.828 3.19996C229.199 4.98474 231.828 7.40162 233.712 10.4498L226.236 14.6009C225.147 12.7158 223.598 11.2415 221.588 10.1787C219.577 9.11581 217.316 8.58479 214.803 8.58479C210.531 8.58479 207.086 9.86823 204.468 12.4351C201.851 15.002 200.542 18.3309 200.542 22.4218C200.542 26.4727 201.851 29.7816 204.468 32.3484C207.086 34.9153 210.531 36.1987 214.803 36.1987C217.316 36.1987 219.587 35.6669 221.619 34.6041C223.65 33.5412 225.189 32.0877 226.236 30.2428L233.712 34.3939C231.828 37.4421 229.21 39.8581 225.859 41.6429C222.509 43.4277 218.823 44.3205 214.803 44.3205Z" fill="#03071B"/>
<path d="M269.207 1.37305V9.31431H257.334V43.4858H248.664V9.31431H236.854V1.37305H269.207Z" fill="#03071B"/>
<path d="M299.114 43.4858L296.476 35.9055H278.948L276.31 43.4858H266.949L282.341 1.37305H293.083L308.537 43.4858H299.114ZM281.712 28.1447H293.774L287.743 10.9387L281.712 28.1447Z" fill="#03071B"/>
<path d="M337.802 1.37305H346.409V43.4858H337.802V26.0391H321.468V43.4858H312.799V1.37305H321.468V18.0978H337.802V1.37305Z" fill="#03071B"/>
<path d="M384.287 1.37305V9.31431H372.414V43.4858H363.744V9.31431H351.934V1.37305H384.287Z" fill="#03071B"/>
<path d="M413.577 43.4858L410.939 35.9055H393.411L390.773 43.4858H381.412L396.804 1.37305H407.546L423 43.4858H413.577ZM396.175 28.1447H408.237L402.206 10.9387L396.175 28.1447Z" fill="#03071B"/>
<path fill-rule="evenodd" clip-rule="evenodd" d="M21.2038 0.523438H0V24.2138C0 29.5994 2.23397 34.764 6.21044 38.5716C10.1869 42.3796 15.58 44.5189 21.2033 44.5189H21.2038V0.523438Z" fill="#F8303B"/>
<path fill-rule="evenodd" clip-rule="evenodd" d="M46.9019 0.523697C46.9019 10.7941 38.2078 19.1194 27.4837 19.1194C25.0642 19.1194 23.4189 19.1194 23.4189 19.1194V0.523193H46.9019V0.523697Z" fill="#E6A128"/>
<path fill-rule="evenodd" clip-rule="evenodd" d="M23.4189 20.9812C23.4189 27.2251 26.0088 33.2127 30.6192 37.6278C35.229 42.043 41.482 44.5231 48.0021 44.5231H49.6678V20.9807H23.4189V20.9812Z" fill="#2C44B3"/>
</svg>
