<svg width="20" height="20" viewBox="0 0 20 20" fill="none" xmlns="http://www.w3.org/2000/svg">
<g clip-path="url(#clip0_266_3112)">
<path d="M15 15.3334H5V16H15V15.3334Z" fill="black"/>
<path d="M15 17.3334H5V18H15V17.3334Z" fill="black"/>
<path d="M15.6667 9.99996C16.0349 9.99996 16.3333 9.70148 16.3333 9.33329C16.3333 8.9651 16.0349 8.66663 15.6667 8.66663C15.2985 8.66663 15 8.9651 15 9.33329C15 9.70148 15.2985 9.99996 15.6667 9.99996Z" fill="black"/>
<path d="M17.6666 6H16.3332V1.33333C16.3332 0.599983 15.7332 0 14.9999 0H4.99992C4.26657 0 3.66659 0.599983 3.66659 1.33333V6H2.33325C1.1999 6 0.333252 6.86665 0.333252 8V14C0.333217 15.1334 1.1999 16 2.33325 16H3.66659V18.6667C3.66659 19.4 4.26657 20 4.99992 20H14.9999C15.7332 20 16.3333 19.4 16.3333 18.6667V16H17.6666C18.7999 16 19.6666 15.1334 19.6666 14V8C19.6666 6.86665 18.7999 6 17.6666 6ZM4.33322 1.33333C4.33322 1.00002 4.59988 0.666667 4.99988 0.666667H14.9999C15.3332 0.666667 15.6666 0.933333 15.6666 1.33333V6H4.33322V1.33333ZM15.6666 18.6667C15.6666 19 15.3999 19.3333 14.9999 19.3333H4.99992C4.6666 19.3333 4.33325 19.0667 4.33325 18.6667V14H15.6666V18.6667ZM18.9999 14C18.9999 14.7333 18.3999 15.3333 17.6666 15.3333H16.3332V13.3333H3.66659V15.3333H2.33325C1.5999 15.3333 0.999919 14.7333 0.999919 14V8C0.999919 7.26665 1.5999 6.66667 2.33325 6.66667H17.6666C18.3999 6.66667 18.9999 7.26665 18.9999 8V14H18.9999Z" fill="black"/>
</g>
<defs>
<clipPath id="clip0_266_3112">
<rect width="20" height="20" fill="white"/>
</clipPath>
</defs>
</svg>
