<svg width="36" height="47" viewBox="0 0 36 47" fill="none" xmlns="http://www.w3.org/2000/svg">
<path d="M18 28C24.6274 28 30 22.6274 30 16C30 9.37258 24.6274 4 18 4C11.3726 4 6 9.37258 6 16C6 22.6274 11.3726 28 18 28Z" stroke="#101010" stroke-width="2" stroke-miterlimit="10"/>
<path d="M18 20C20.7614 20 23 17.7614 23 15C23 12.2386 20.7614 10 18 10C15.2386 10 13 12.2386 13 15C13 17.7614 15.2386 20 18 20Z" stroke="#101010" stroke-width="2" stroke-miterlimit="10"/>
<path d="M9.9751 24.9218C10.7284 23.4408 11.8767 22.1971 13.2931 21.3284C14.7095 20.4598 16.3387 20 18.0002 20C19.6617 20 21.2909 20.4598 22.7073 21.3284C24.1237 22.1971 25.272 23.4407 26.0253 24.9217" stroke="#101010" stroke-width="2" stroke-linecap="round" stroke-linejoin="round"/>
<path d="M0.958807 44V35.2727H4.15483C4.77415 35.2727 5.28693 35.375 5.69318 35.5795C6.09943 35.7812 6.40341 36.0554 6.60511 36.402C6.80682 36.7457 6.90767 37.1335 6.90767 37.5653C6.90767 37.929 6.84091 38.2358 6.70739 38.4858C6.57386 38.733 6.39489 38.9318 6.17045 39.0824C5.94886 39.2301 5.70455 39.3381 5.4375 39.4062V39.4915C5.72727 39.5057 6.00994 39.5994 6.28551 39.7727C6.56392 39.9432 6.79403 40.1861 6.97585 40.5014C7.15767 40.8168 7.24858 41.2003 7.24858 41.652C7.24858 42.098 7.14347 42.4986 6.93324 42.8537C6.72585 43.206 6.40483 43.4858 5.97017 43.6932C5.53551 43.8977 4.98011 44 4.30398 44H0.958807ZM2.27557 42.8707H4.17614C4.80682 42.8707 5.25852 42.7486 5.53125 42.5043C5.80398 42.2599 5.94034 41.9545 5.94034 41.5881C5.94034 41.3125 5.87074 41.0597 5.73153 40.8295C5.59233 40.5994 5.39347 40.4162 5.13494 40.2798C4.87926 40.1435 4.57528 40.0753 4.22301 40.0753H2.27557V42.8707ZM2.27557 39.0483H4.03977C4.33523 39.0483 4.60085 38.9915 4.83665 38.8778C5.07528 38.7642 5.2642 38.6051 5.40341 38.4006C5.54545 38.1932 5.61648 37.9489 5.61648 37.6676C5.61648 37.3068 5.49006 37.0043 5.23722 36.7599C4.98438 36.5156 4.59659 36.3935 4.07386 36.3935H2.27557V39.0483ZM11.4652 44.1321C10.8516 44.1321 10.3161 43.9915 9.85866 43.7102C9.40128 43.429 9.04616 43.0355 8.79332 42.5298C8.54048 42.0241 8.41406 41.4332 8.41406 40.7571C8.41406 40.0781 8.54048 39.4844 8.79332 38.9759C9.04616 38.4673 9.40128 38.0724 9.85866 37.7912C10.3161 37.5099 10.8516 37.3693 11.4652 37.3693C12.0788 37.3693 12.6143 37.5099 13.0717 37.7912C13.5291 38.0724 13.8842 38.4673 14.1371 38.9759C14.3899 39.4844 14.5163 40.0781 14.5163 40.7571C14.5163 41.4332 14.3899 42.0241 14.1371 42.5298C13.8842 43.0355 13.5291 43.429 13.0717 43.7102C12.6143 43.9915 12.0788 44.1321 11.4652 44.1321ZM11.4695 43.0625C11.8672 43.0625 12.1967 42.9574 12.4581 42.7472C12.7195 42.5369 12.9126 42.2571 13.0376 41.9077C13.1655 41.5582 13.2294 41.1733 13.2294 40.7528C13.2294 40.3352 13.1655 39.9517 13.0376 39.6023C12.9126 39.25 12.7195 38.9673 12.4581 38.7543C12.1967 38.5412 11.8672 38.4347 11.4695 38.4347C11.0689 38.4347 10.7365 38.5412 10.4723 38.7543C10.2109 38.9673 10.0163 39.25 9.88849 39.6023C9.76349 39.9517 9.70099 40.3352 9.70099 40.7528C9.70099 41.1733 9.76349 41.5582 9.88849 41.9077C10.0163 42.2571 10.2109 42.5369 10.4723 42.7472C10.7365 42.9574 11.0689 43.0625 11.4695 43.0625ZM17.1871 42.2145L20.0721 37.4545H21.4442V44H20.1957V39.2358L17.3235 44H15.9386V37.4545H17.1871V42.2145ZM19.5266 35.2386H20.5749C20.5749 35.7187 20.4045 36.1094 20.0636 36.4105C19.7255 36.7088 19.2681 36.858 18.6914 36.858C18.1175 36.858 17.6616 36.7088 17.3235 36.4105C16.9854 36.1094 16.8164 35.7187 16.8164 35.2386H17.8604C17.8604 35.4517 17.9229 35.6406 18.0479 35.8054C18.1729 35.9673 18.3874 36.0483 18.6914 36.0483C18.9897 36.0483 19.2028 35.9673 19.3306 35.8054C19.4613 35.6435 19.5266 35.4545 19.5266 35.2386ZM22.3455 38.554V37.4545H27.8683V38.554H25.7333V44H24.489V38.554H22.3455ZM30.4645 42.2145L33.3494 37.4545H34.7216V44H33.473V39.2358L30.6009 44H29.2159V37.4545H30.4645V42.2145Z" fill="#101010"/>
</svg>
