<svg width="16" height="8" viewBox="0 0 16 8" fill="none" xmlns="http://www.w3.org/2000/svg">
<path d="M0.210492 1.14767C-0.070164 0.885124 -0.070164 0.459454 0.210492 0.196909C0.491148 -0.0656363 0.946181 -0.0656363 1.22684 0.196909L8.34125 6.85223C8.62191 7.11477 8.62191 7.54044 8.34125 7.80299C8.0606 8.06553 7.60556 8.06553 7.32491 7.80299L0.210492 1.14767Z" fill="#365EDC"/>
<path d="M14.7732 0.19701C15.0538 -0.0655347 15.5089 -0.0655347 15.7895 0.19701C16.0702 0.459556 16.0702 0.885225 15.7895 1.14777L8.67509 7.80309C8.39444 8.06564 7.9394 8.06564 7.65875 7.80309C7.37809 7.54055 7.37809 7.11488 7.65875 6.85233L14.7732 0.19701Z" fill="#365EDC"/>
</svg>
