<svg width="20" height="20" viewBox="0 0 20 20" fill="none" xmlns="http://www.w3.org/2000/svg">
<path d="M0.699853 2.20133C0.310185 1.80052 0.310185 1.16242 0.699853 0.761609V0.761609C1.10537 0.344501 1.77522 0.344501 2.18073 0.761609L18.7441 17.7985C19.1338 18.1993 19.1338 18.8374 18.7441 19.2382V19.2382C18.3386 19.6553 17.6687 19.6553 17.2632 19.2382L0.699853 2.20133Z" fill="#101010"/>
<path d="M17.8193 0.761767C18.2248 0.344659 18.8946 0.34466 19.3001 0.761767V0.761767C19.6898 1.16258 19.6898 1.80068 19.3001 2.20149L2.73677 19.2384C2.33125 19.6555 1.6614 19.6555 1.25589 19.2384V19.2384C0.866217 18.8376 0.866217 18.1995 1.25589 17.7987L17.8193 0.761767Z" fill="#101010"/>
</svg>
