<svg width="8" height="10" viewBox="0 0 8 10" fill="none" xmlns="http://www.w3.org/2000/svg">
<path d="M1.14767 9.86844C0.885124 10.0439 0.459454 10.0439 0.196909 9.86844C-0.0656363 9.69303 -0.0656363 9.40864 0.196909 9.23323L6.85223 4.78672C7.11477 4.61131 7.54045 4.61131 7.80299 4.78672C8.06554 4.96213 8.06554 5.24652 7.80299 5.42193L1.14767 9.86844Z" fill="#353535"/>
<path d="M0.19701 0.766772C-0.0655352 0.591362 -0.0655352 0.306967 0.19701 0.131557C0.459555 -0.0438538 0.885225 -0.0438538 1.14777 0.131556L7.80309 4.57807C8.06564 4.75348 8.06564 5.03787 7.80309 5.21328C7.54055 5.38869 7.11488 5.38869 6.85233 5.21328L0.19701 0.766772Z" fill="#353535"/>
</svg>
