<svg width="70" height="71" viewBox="0 0 70 71" fill="none" xmlns="http://www.w3.org/2000/svg">
<path fill-rule="evenodd" clip-rule="evenodd" d="M33.5413 8.52685C19.4466 8.52685 8.02051 19.9682 8.02051 34.0818C8.02051 48.1954 19.4466 59.6368 33.5413 59.6368C47.6361 59.6368 59.0622 48.1954 59.0622 34.0818C59.0622 19.9682 47.6361 8.52685 33.5413 8.52685ZM3.64551 34.0818C3.64551 17.5487 17.0303 4.146 33.5413 4.146C50.0523 4.146 63.4372 17.5487 63.4372 34.0818C63.4372 50.6149 50.0523 64.0176 33.5413 64.0176C17.0303 64.0176 3.64551 50.6149 3.64551 34.0818Z" fill="#365EDC"/>
<path fill-rule="evenodd" clip-rule="evenodd" d="M52.4112 52.9765C53.2655 52.1211 54.6505 52.1211 55.5048 52.9765L65.7131 63.1985C66.5674 64.0539 66.5674 65.4408 65.7131 66.2962C64.8589 67.1517 63.4738 67.1517 62.6195 66.2962L52.4112 56.0743C51.5569 55.2188 51.5569 53.8319 52.4112 52.9765Z" fill="#365EDC"/>
<path fill-rule="evenodd" clip-rule="evenodd" d="M33.5417 24.5898C34.7498 24.5898 35.7292 25.5705 35.7292 26.7803V31.8913H40.8333C42.0415 31.8913 43.0208 32.8719 43.0208 34.0817C43.0208 35.2914 42.0415 36.2721 40.8333 36.2721H35.7292V41.3831C35.7292 42.5928 34.7498 43.5735 33.5417 43.5735C32.3335 43.5735 31.3542 42.5928 31.3542 41.3831V36.2721H26.25C25.0419 36.2721 24.0625 35.2914 24.0625 34.0817C24.0625 32.8719 25.0419 31.8913 26.25 31.8913H31.3542V26.7803C31.3542 25.5705 32.3335 24.5898 33.5417 24.5898Z" fill="#365EDC"/>
</svg>
