<svg width="14" height="16" viewBox="0 0 14 16" fill="none" xmlns="http://www.w3.org/2000/svg">
<path fill-rule="evenodd" clip-rule="evenodd" d="M1.14152 1.017C1.35249 0.806027 1.63864 0.6875 1.93701 0.6875H8.68756C8.83675 0.6875 8.97982 0.746763 9.08531 0.852252L13.0228 4.78975C13.1283 4.89524 13.1876 5.03832 13.1876 5.1875V14.1875C13.1876 14.3352 13.1585 14.4815 13.1019 14.618C13.0454 14.7545 12.9625 14.8785 12.8581 14.983C12.7536 15.0875 12.6296 15.1703 12.4931 15.2269C12.3566 15.2834 12.2103 15.3125 12.0626 15.3125H1.93701C1.63864 15.3125 1.3525 15.194 1.14152 14.983C0.930537 14.772 0.812012 14.4859 0.812012 14.1875V1.8125C0.812012 1.51413 0.930538 1.22798 1.14152 1.017ZM8.45457 1.8125L1.93701 1.8125L1.93701 14.1875L12.0626 14.1875V5.4205L8.45457 1.8125Z" fill="#E6A128"/>
<path fill-rule="evenodd" clip-rule="evenodd" d="M8.6875 0.6875C8.99816 0.6875 9.25 0.93934 9.25 1.25V4.625H12.6256C12.9362 4.625 13.1881 4.87684 13.1881 5.1875C13.1881 5.49816 12.9362 5.75 12.6256 5.75H8.6875C8.37684 5.75 8.125 5.49816 8.125 5.1875V1.25C8.125 0.93934 8.37684 0.6875 8.6875 0.6875Z" fill="#E6A128"/>
<path fill-rule="evenodd" clip-rule="evenodd" d="M4.1875 8.5625C4.1875 8.25184 4.43934 8 4.75 8H9.25C9.56066 8 9.8125 8.25184 9.8125 8.5625C9.8125 8.87316 9.56066 9.125 9.25 9.125H4.75C4.43934 9.125 4.1875 8.87316 4.1875 8.5625Z" fill="#E6A128"/>
<path fill-rule="evenodd" clip-rule="evenodd" d="M4.1875 10.8125C4.1875 10.5018 4.43934 10.25 4.75 10.25H9.25C9.56066 10.25 9.8125 10.5018 9.8125 10.8125C9.8125 11.1232 9.56066 11.375 9.25 11.375H4.75C4.43934 11.375 4.1875 11.1232 4.1875 10.8125Z" fill="#E6A128"/>
</svg>
